<svg xmlns="http://www.w3.org/2000/svg" viewBox="0 0 512 512"><path d="M504.5 245.09c4.143 0 7.5-3.357 7.5-7.5V133.208c0-15.756-12.819-28.575-28.575-28.575-14.146 0-25.919 10.336-28.178 23.851-77.736-.562-75.828 1.268-81.884-1.663-6.291-3.044-17.591-9.754-29.49-17.51a7.502 7.502 0 00-8.192 12.568c27.233 17.751 35.146 21.606 44.959 21.606h74.209v145.358H427.76a33.021 33.021 0 00-8.401-17.3c-91.937-103.563-85.069-95.981-89.096-96.057-46.112-.857-72.159-29.164-72.402-29.433-4.979-5.588-16.856-6.663-23.284-.827l-37.588 34.193a21.927 21.927 0 01-15.589 5.687c-16.357-.605-22.91-16.078-14.245-25.43a45537.51 45537.51 0 0127.566-29.748c-.231.248-.566.606.138-.161 21.732-23.604 39.493-31.383 40.21-31.867 22.827-11.476 49.838-13.025 71.227 3.361a7.5 7.5 0 0010.516-1.392 7.5 7.5 0 00-1.392-10.516c-22.301-17.085-53.16-20.858-84.433-6.144-19.259-5.333-32.868-5.999-41.518-2.019-24.711 11.37-52.75 40.929-62.462 45.628-6.099 2.952-5.809 1.118-70.254 1.663-2.259-13.515-14.031-23.851-28.178-23.851C12.819 104.632 0 117.452 0 133.208v23.33a7.5 7.5 0 007.5 7.5c4.143 0 7.5-3.357 7.5-7.5v-23.33c0-7.484 6.089-13.574 13.574-13.574 7.484 0 13.574 6.089 13.574 13.574V298.59c0 7.484-6.089 13.574-13.574 13.574-7.484 0-13.574-6.089-13.574-13.574V194.209c0-4.143-3.357-7.5-7.5-7.5a7.5 7.5 0 00-7.5 7.5V298.59c0 15.756 12.819 28.575 28.575 28.575 13.961 0 25.609-10.068 28.083-23.321h33.531c3.396 14.672 16.729 25.229 32.257 24.703-2.774 19.717 12.822 37.127 32.769 36.451-2.774 19.719 12.821 37.127 32.769 36.45-4.213 29.946 31.288 47.868 53.072 28.286l16.001-14.385c20.312 16.983 52.399 4.266 54.126-23.312 20.242 5.701 39.958-8.314 41.815-28.778 22.512 5.436 43.475-13.124 40.574-36.237 15.078.698 28.659-8.799 33.104-23.177h28.667c2.474 13.254 14.122 23.321 28.083 23.321 15.756 0 28.575-12.819 28.575-28.575v-25.054c0-4.143-3.357-7.5-7.5-7.5a7.499 7.499 0 00-7.5 7.5v25.054c0 7.484-6.089 13.574-13.574 13.574-7.484 0-13.574-6.089-13.574-13.574V133.209c0-7.484 6.089-13.574 13.574-13.574 7.484 0 13.574 6.089 13.574 13.574V237.59a7.497 7.497 0 007.499 7.5zm-399.386 46.503a17.055 17.055 0 014.866-7.665c19.619-17.631 21.25-20.063 26.614-21.49 16.722-4.542 29.296 16.15 15.848 29.058l-19.722 17.729c-12.614 11.337-32.631-.929-27.606-17.632zm36.358 52.804c-6.269-6.974-5.695-17.749 1.278-24.019l19.73-17.736c6.967-6.267 17.758-5.675 24.017 1.277h.001c5.261 5.853 6.293 15.039-.023 22.765-1.093 1.209-.176.239-20.986 18.99-6.974 6.27-17.751 5.695-24.017-1.277zm32.768 36.452c-6.269-6.974-5.695-17.749 1.278-24.019 20.746-18.585 21.886-20.826 28.395-21.871 5.993-.968 11.709 1.357 15.352 5.412h.001c6.235 6.932 5.73 17.715-1.277 24.018l-19.731 17.737c-6.973 6.268-17.75 5.696-24.018-1.277zm77.555 18.958c-1.144 1.222.096-.032-20.769 18.77-6.973 6.268-17.748 5.695-24.017-1.277-6.27-6.974-5.695-17.749 1.278-24.019 20.152-18.031 21.603-20.641 27.975-21.813.18.04 8.96-2.225 15.772 5.354h.001c5.731 6.374 5.888 16.416-.24 22.985zm133.095-90.904c-7.103-4.898-15.52 4.214-10.076 10.908 5.967 7.335 5.227 18.13-1.685 24.575-6.892 6.427-17.697 6.427-24.595.002-5.957-5.556-15.288 1.122-11.958 8.554 3.293 7.353 1.269 16.099-4.922 21.268-7.343 6.129-18.368 5.279-25.1-1.938l-1.886-2.023a7.505 7.505 0 00-10.205-.718 7.505 7.505 0 00-1.429 10.131c5.12 7.32 4.056 17.434-2.476 23.524-6.582 6.136-16.567 6.403-23.443 1.021 12.649-21.65-3.964-48.926-28.763-48.039 2.718-19.459-12.739-37.041-32.814-36.413 2.764-19.668-12.814-37.076-32.76-36.45 1.319-9.527-1.591-18.846-7.893-25.863l-.001-.001c-11.732-13.073-31.979-14.297-45.202-2.404-20.491 18.465-19.934 17.806-21.604 19.578a31.805 31.805 0 00-7.776 14.23H57.149v-145.36c60.835-.922 65.265 2.225 76.392-3.161 12.672-6.131 39.288-34.963 62.198-45.503 1.732-.797 6.215-1.975 16.3-.461-23.776 16.838-37.945 37.418-55.891 55.123-17.637 19.044-3.948 50.79 26.253 50.634a36.896 36.896 0 0024.682-9.602l37.194-33.836a2.908 2.908 0 012.991.01c16.759 17.654 46.508 32.259 79.411 33.691 88.747 99.251 81.906 91.568 82.881 92.802 2.652 3.545 3.526 12.605 3.517 12.505-1.282 13.979-17.076 20.872-28.187 13.216z"/><path d="M194.72 129.929c.151-.161.255-.274 0 0z"/></svg>