<svg id="Capa_1" enable-background="new 0 0 508.014 508.014" height="512" viewBox="0 0 508.014 508.014" width="512" xmlns="http://www.w3.org/2000/svg"><path id="XMLID_356_" d="m69.657 64.974h368.7v443.04h-368.7z" fill="#fff9d7"/><path id="XMLID_1469_" d="m254.007 64.974h184.35v443.04h-184.35z" fill="#ffeb97"/><path id="XMLID_1174_" d="m313.287 411.463v96.55h-118.56v-96.55c0-27.2 18.91-50.08 44.28-56.16 4.32-1.04 8.83-1.59 13.47-1.59h3.06c4.64 0 9.15.55 13.47 1.59 25.37 6.08 44.28 28.96 44.28 56.16z" fill="#ffaf37"/><path id="XMLID_433_" d="m132.995 264.622h30v55.933h-30z" fill="#6cd0f5"/><path id="XMLID_432_" d="m203.669 264.622h30v55.933h-30z" fill="#6cd0f5"/><path id="XMLID_429_" d="m274.344 264.622h30v55.933h-30z" fill="#549cff"/><path id="XMLID_428_" d="m345.019 264.622h30v55.933h-30z" fill="#549cff"/><path id="XMLID_419_" d="m132.995 151.722h30v55.932h-30z" fill="#6cd0f5"/><path id="XMLID_390_" d="m203.669 151.722h30v55.932h-30z" fill="#6cd0f5"/><g fill="#549cff"><path id="XMLID_384_" d="m274.344 151.722h30v55.932h-30z"/><path id="XMLID_380_" d="m345.019 151.722h30v55.932h-30z"/><path id="XMLID_379_" d="m345.019 383.892h30v71.127h-30z"/></g><path id="XMLID_378_" d="m132.995 383.892h30v71.127h-30z" fill="#6cd0f5"/><path id="XMLID_1170_" d="m269.007 355.303v152.71h-30v-152.71c4.32-1.04 8.83-1.59 13.47-1.59h3.06c4.64 0 9.15.55 13.47 1.59z" fill="#f2b88f"/><path id="XMLID_598_" d="m254.007 0-184.35 64.974h368.7z" fill="#ffaf37"/><path id="XMLID_1471_" d="m438.357 64.974-184.35-64.974v64.974z" fill="#ff8c05"/><path id="XMLID_1470_" d="m269.007 355.303c-4.32-1.04-8.83-1.59-13.47-1.59h-1.53v154.3h59.28v-96.55c0-27.2-18.91-50.08-44.28-56.16z" fill="#ff8c05"/><path id="XMLID_1477_" d="m255.537 353.713h-1.53v154.3h15v-152.71c-4.32-1.04-8.83-1.59-13.47-1.59z" fill="#d18a56"/></svg>