<svg id="Capa_1" enable-background="new 0 0 512 512" height="512" viewBox="0 0 512 512" width="512" xmlns="http://www.w3.org/2000/svg"><g><g clip-rule="evenodd" fill-rule="evenodd"><path d="m384.142 0c8.249 0 14.996 6.746 14.996 14.995v389.315h-29.991v-389.315c0-8.249 6.747-14.995 14.995-14.995z" fill="#ffbe83"/><path d="m317.641 399.322h133.003c4.848 0 8.845 2.466 10.63 7.54l17.349 49.465-94.111 7.739-94.878-7.739 17.35-49.465c1.67-4.791 5.809-7.54 10.657-7.54z" fill="#0c5e7f"/><path d="m433.635 399.322h17.009c4.848 0 8.845 2.466 10.63 7.54l17.349 49.465h-188.99l8.76-25.002h125.633c13.238 0 18.71-6.038 14.287-18.652z" fill="#174b67"/><path d="m478.622 456.327v40.678c0 8.249-6.747 14.995-14.995 14.995h-158.998c-8.248 0-14.996-6.746-14.996-14.995v-40.678z" fill="#cbe2ff"/><path d="m478.622 456.327v40.678c0 8.249-6.747 14.995-14.995 14.995h-158.998c-8.248 0-14.996-6.746-14.996-14.995v-10.007h144.002c11 0 19.985-8.986 19.985-19.984v-10.687z" fill="#bed8fb"/><path d="m190.136 257.814v-48.501c0-21.657-18.794-40.224-38.013-47.368h-34.98c-19.219 7.144-38.013 25.739-38.013 47.368v48.501l55.021 11.991z" fill="#95d6a4"/><path d="m264.632 319.1-16.158 166.027c-1.417 14.713-12.104 26.873-26.872 26.873h-123.678c-14.797 0-25.456-12.16-26.901-26.873l-16.129-166.027 100.745-9.497z" fill="#9dc6fb"/><path d="m49.508 257.814h220.481c8.872 0 16.129 7.257 16.129 16.129v29.027c0 8.872-7.257 16.129-16.129 16.129h-220.481c-8.873 0-16.13-7.257-16.13-16.129v-29.027c0-8.872 7.257-16.129 16.13-16.129z" fill="#cbe2ff"/><path d="m261.116 257.814h8.873c8.872 0 16.129 7.257 16.129 16.129v29.027c0 8.872-7.257 16.129-16.129 16.129h-220.481c-8.873 0-16.13-7.257-16.13-16.129v-8.873h207.754c10.999 0 19.984-8.986 19.984-19.985z" fill="#bed8fb"/><path d="m264.632 319.1-16.158 166.027c-1.417 14.713-12.104 26.873-26.872 26.873h-123.678c-14.145 0-24.549-11.14-26.675-25.002h114.89c22.876 0 35.944-9.865 38.241-36l12.812-131.898z" fill="#80b4fb"/><path d="m223.756 257.814v126.909c0 8.873-7.258 16.129-16.13 16.129h-65.623c-8.873 0-16.129-7.256-16.129-16.129v-126.909z" fill="#ff8086"/><path d="m223.756 257.814v126.909c0 8.873-7.258 16.129-16.13 16.129h-65.623c-8.873 0-16.129-7.256-16.129-16.129v-8.873h47.878c13.748 0 25.002-11.253 25.002-25.001v-93.035z" fill="#ff646f"/><path d="m190.136 257.814v-48.501c0-18.454-13.663-34.669-29.622-43.484 2.92 5.727 4.621 11.962 4.621 18.482v36.709c0 8.532-3.516 11.792-14.004 11.792h-72.001v25.002z" fill="#78c2a4"/><path d="m117.114 119.935h35.009v42.01h-35.009z" fill="#0c5e7f"/></g><path d="m224.72 172.008c3.203 2.608 3.686 7.313 1.077 10.517-2.579 3.203-7.314 3.685-10.518 1.077-.085-.085-32.258-25.71-31.748-81.922.057-4.139 3.43-7.455 7.54-7.427 4.139.028 7.455 3.401 7.427 7.54-.481 48.983 26.137 70.13 26.222 70.215z" fill="#0c5e7f"/><path clip-rule="evenodd" d="m90.667 71.802h122.798c6.35 0 11.566 5.188 11.566 11.537v6.831c0 6.35-5.217 11.566-11.566 11.566h-38.324c-5.641 0-8.021 3.288-8.021 7.994v2.211c0 5.386-2.467 7.994-7.994 7.994h-68.459c-6.35 0-11.537-5.216-11.537-11.565v-25.03c0-6.35 5.187-11.538 11.537-11.538z" fill="#ede9fb" fill-rule="evenodd"/><path d="m328.639 456.327v25.994c0 4.139-3.373 7.512-7.512 7.512s-7.483-3.373-7.483-7.512v-25.994zm126.002 0v25.994c0 4.139-3.373 7.512-7.512 7.512s-7.484-3.373-7.484-7.512v-25.994zm-31.494 0v25.994c0 4.139-3.373 7.512-7.512 7.512s-7.512-3.373-7.512-7.512v-25.994zm-31.521 0v25.994c0 4.139-3.346 7.512-7.484 7.512s-7.512-3.373-7.512-7.512v-25.994zm-31.494 0v25.994c0 4.139-3.345 7.512-7.512 7.512-4.139 0-7.483-3.373-7.483-7.512v-25.994z" fill="#faf8f9"/></g></svg>