<svg id="Layer_5" height="512" viewBox="0 0 24 24" width="512" xmlns="http://www.w3.org/2000/svg" data-name="Layer 5"><path d="m16 24h-8a5.0059 5.0059 0 0 1 -5-5v-14a5.0059 5.0059 0 0 1 5-5h8a5.0059 5.0059 0 0 1 5 5v14a5.0059 5.0059 0 0 1 -5 5zm-8-22a3.0033 3.0033 0 0 0 -3 3v14a3.0033 3.0033 0 0 0 3 3h8a3.0033 3.0033 0 0 0 3-3v-14a3.0033 3.0033 0 0 0 -3-3z" fill="#212529"/><path d="m17 6h-10a1 1 0 0 1 0-2h10a1 1 0 0 1 0 2z" fill="#212529"/><path d="m12 21a3 3 0 1 1 3-3 3.0033 3.0033 0 0 1 -3 3zm0-4a1 1 0 1 0 1 1 1.0006 1.0006 0 0 0 -1-1z" fill="#5cfaa9"/></svg>