<svg id="Capa_1" enable-background="new 0 0 512 512" height="512" viewBox="0 0 512 512" width="512" xmlns="http://www.w3.org/2000/svg"><g><g clip-rule="evenodd" fill-rule="evenodd"><path d="m444.01 125.293v356.716c0 16.498-13.521 29.991-30.02 29.991h-316.01c-16.498 0-29.99-13.493-29.99-29.991v-356.716l191.51-12.983z" fill="#faf8f9"/><path d="m419.008 125.293v321.708c0 21.997-18 39.997-40.026 39.997h-310.567c2.409 14.145 14.769 25.002 29.565 25.002h316.01c16.498 0 30.02-13.493 30.02-29.991v-356.716z" fill="#ede9fb"/><path d="m413.99 0h-316.01c-16.498 0-29.99 13.493-29.99 29.991v95.302h376.02v-95.302c0-16.498-13.522-29.991-30.02-29.991z" fill="#e0dbee"/><path d="m419.008 125.293h25.002v-95.302c0-14.797-10.857-27.156-25.002-29.566z" fill="#d3cee5"/><path d="m164.142 93.516c16.979 0 30.842-13.861 30.842-30.87 0-16.98-13.862-30.841-30.842-30.841s-30.841 13.861-30.841 30.841c0 17.009 13.861 30.87 30.841 30.87z" fill="#80b4fb"/><path d="m347.857 93.516c16.98 0 30.841-13.861 30.841-30.87 0-16.98-13.861-30.841-30.841-30.841-17.008 0-30.869 13.861-30.869 30.841 0 17.009 13.862 30.87 30.869 30.87z" fill="#80b4fb"/></g><path d="m234.98 40.139c-4.139 0-7.483-3.345-7.483-7.483 0-4.139 3.345-7.512 7.483-7.512h42.01c4.139 0 7.512 3.373 7.512 7.512s-3.373 7.483-7.512 7.483zm0 60.01c-4.139 0-7.483-3.345-7.483-7.483 0-4.167 3.345-7.512 7.483-7.512h42.01c4.139 0 7.512 3.345 7.512 7.512 0 4.138-3.373 7.483-7.512 7.483zm0-29.99c-4.139 0-7.483-3.373-7.483-7.512s3.345-7.484 7.483-7.484h42.01c4.139 0 7.512 3.345 7.512 7.484s-3.373 7.512-7.512 7.512z" fill="#0c5e7f"/><path d="m406.082 48.728c-4.139 0-7.512-3.373-7.512-7.512s3.373-7.483 7.512-7.483h5.244c4.139 0 7.483 3.345 7.483 7.483s-3.345 7.512-7.483 7.512zm0 42.861c-4.139 0-7.512-3.374-7.512-7.512s3.373-7.483 7.512-7.483h5.244c4.139 0 7.483 3.345 7.483 7.483 0 4.139-3.345 7.512-7.483 7.512z" fill="#95d6a4"/><path d="m100.674 48.728c-4.139 0-7.513-3.373-7.513-7.512s3.374-7.483 7.513-7.483h5.243c4.139 0 7.513 3.345 7.513 7.483s-3.374 7.512-7.513 7.512zm0 42.861c-4.139 0-7.513-3.374-7.513-7.512s3.374-7.483 7.513-7.483h5.243c4.139 0 7.513 3.345 7.513 7.483 0 4.139-3.374 7.512-7.513 7.512z" fill="#ff8086"/><path clip-rule="evenodd" d="m255.985 438.156c65.821 0 119.51-53.689 119.51-119.51s-53.688-119.481-119.51-119.481c-65.821 0-119.481 53.661-119.481 119.481 0 65.821 53.66 119.51 119.481 119.51z" fill="#0c5e7f" fill-rule="evenodd"/><path clip-rule="evenodd" d="m327.079 222.579c29.367 21.77 48.416 56.694 48.416 96.067 0 66.02-53.49 119.51-119.51 119.51-39.373 0-74.297-19.049-96.067-48.417 19.871 14.712 44.447 23.415 71.066 23.415 66.018 0 119.509-53.491 119.509-119.51 0-26.617-8.702-51.194-23.414-71.065z" fill="#174b67" fill-rule="evenodd"/><path clip-rule="evenodd" d="m255.985 244.803c27.836 0 52.045 15.392 64.631 38.098v71.518c-12.586 22.706-36.795 38.098-64.631 38.098-40.79 0-73.844-33.081-73.844-73.872.001-40.79 33.054-73.842 73.844-73.842z" fill="#cbe2ff" fill-rule="evenodd"/><path clip-rule="evenodd" d="m329.857 318.646c0-12.954-3.345-25.171-9.241-35.745-15.931 4.082-27.695 18.539-27.695 35.745 0 17.207 11.765 31.692 27.695 35.774 5.897-10.602 9.241-22.791 9.241-35.774z" fill="#80b4fb" fill-rule="evenodd"/><path clip-rule="evenodd" d="m106.002 482.009h44.987c4.393 0 7.994-3.6 7.994-7.994v-14.202c0-4.394-3.601-7.994-7.994-7.994h-44.987c-4.422 0-8.021 3.6-8.021 7.994v14.202c-.001 4.394 3.599 7.994 8.021 7.994z" fill="#d3cee5" fill-rule="evenodd"/></g></svg>