<svg id="Capa_1" enable-background="new 0 0 512 512" height="512" viewBox="0 0 512 512" width="512" xmlns="http://www.w3.org/2000/svg"><g><path clip-rule="evenodd" d="m128.695 34.03c-3.09 0-4.479 2.438-4.422 5.158-.227 7.315-3.77 14.43-9.128 19.787-5.527 5.528-12.926 9.128-20.495 9.128-2.438 0-4.45 2.013-4.45 4.45 0 2.466 2.013 4.45 4.45 4.45 7.569 0 14.968 3.601 20.495 9.128 5.357 5.386 8.901 12.473 9.128 19.813-.057 2.693 1.333 5.131 4.422 5.131 3.118 0 4.507-2.438 4.45-5.131.198-7.341 3.77-14.428 9.128-19.813 5.528-5.527 12.898-9.128 20.467-9.128 2.466 0 4.45-1.984 4.45-4.45 0-2.438-1.984-4.45-4.45-4.45-7.568 0-14.939-3.6-20.467-9.128-5.358-5.357-8.929-12.472-9.128-19.787.057-2.72-1.332-5.158-4.45-5.158z" fill="#ffd064" fill-rule="evenodd"/><path clip-rule="evenodd" d="m273.717 335.045c-3.09 0-4.507 2.438-4.45 5.159-.199 7.314-3.771 14.428-9.128 19.785-5.527 5.528-12.898 9.128-20.466 9.128-2.467 0-4.451 1.984-4.451 4.45 0 2.467 1.984 4.451 4.451 4.451 7.568 0 14.938 3.6 20.466 9.128 5.357 5.357 8.929 12.473 9.128 19.786-.057 2.722 1.36 5.159 4.45 5.159s4.479-2.438 4.422-5.159c.227-7.313 3.771-14.429 9.155-19.786 5.5-5.528 12.899-9.128 20.468-9.128 2.438 0 4.45-1.984 4.45-4.451 0-2.466-2.013-4.45-4.45-4.45-7.568 0-14.968-3.6-20.468-9.128-5.385-5.357-8.929-12.472-9.155-19.785.056-2.722-1.332-5.159-4.422-5.159z" fill="#ffd064" fill-rule="evenodd"/><path d="m73.503 470.486c0 4.139-3.345 7.483-7.483 7.483-4.139 0-7.512-3.345-7.512-7.483v-14.26c0-3.741 2.778-6.859 6.378-7.398l56.325-12.132v-48.388c0-4.139 3.345-7.484 7.483-7.484 4.167 0 7.512 3.346 7.512 7.484v48.388l56.751 12.218c3.458.736 5.953 3.77 5.953 7.312v14.26c0 4.139-3.373 7.483-7.512 7.483s-7.512-3.345-7.512-7.483v-8.222l-47.679-10.261v18.482c0 4.139-3.345 7.483-7.512 7.483-4.139 0-7.483-3.345-7.483-7.483v-18.482l-47.708 10.261v8.222z" fill="#0c5e7f"/><path d="m17.49 293.573c0-4.139 3.373-7.512 7.512-7.512s7.512 3.373 7.512 7.512v176.913c0 4.139-3.373 7.483-7.512 7.483s-7.512-3.345-7.512-7.483z" fill="#ce835d"/><g clip-rule="evenodd" fill-rule="evenodd"><path d="m484.022 273.56h-124.811c-4.395 0-7.994 3.6-7.994 7.994v188.42c0 4.395 3.6 7.995 7.994 7.995h124.811c4.394 0 7.994-3.6 7.994-7.995v-188.42c0-4.394-3.6-7.994-7.994-7.994z" fill="#efa473"/><path d="m484.022 273.56h-17.009v159.422c0 10.999-9.014 19.984-20.013 19.984h-95.783v17.008c0 4.395 3.6 7.995 7.994 7.995h124.811c4.394 0 7.994-3.6 7.994-7.995v-188.42c0-4.394-3.6-7.994-7.994-7.994z" fill="#dd956c"/><path d="m310.88 203.572 19.843-5.499 19.813 5.499 6.18 50.004-26.731 8.249-25.285-8.249z" fill="#d3cee5"/><path d="m7.994 293.573h496.012c4.394 0 7.994-3.601 7.994-8.022v-23.98c0-4.395-3.601-7.994-7.994-7.994h-496.012c-4.394 0-7.994 3.6-7.994 7.994v23.98c0 4.422 3.6 8.022 7.994 8.022z" fill="#ffefd6"/><path d="m86.004 318.32h85.38c11.027 0 20.013-9.014 20.013-20.014v-120.756c0-10.998-8.986-19.984-20.013-19.984h-85.38c-10.999 0-19.984 8.986-19.984 19.984v120.757c0 11 8.986 20.013 19.984 20.013z" fill="#9dc6fb"/><path d="m86.004 318.32h85.38c11.027 0 20.013-9.014 20.013-20.014v-120.756c0-10.998-8.986-19.984-20.013-19.984h-4.989v115.74c0 10.998-8.986 20.013-19.985 20.013h-80.39v4.988c0 11 8.986 20.013 19.984 20.013z" fill="#80b4fb"/></g><path d="m121.211 237.929c0-4.139 3.345-7.483 7.483-7.483 4.167 0 7.512 3.345 7.512 7.483v115.399c0 4.139-3.345 7.483-7.512 7.483-4.139 0-7.483-3.345-7.483-7.483z" fill="#0c5e7f"/><path clip-rule="evenodd" d="m81.384 353.328h94.622c8.476 0 15.392 6.917 15.392 15.364v11.622c0 4.395-3.6 7.994-7.994 7.994h-109.39c-4.394 0-7.994-3.6-7.994-7.994v-11.622c0-8.447 6.917-15.364 15.364-15.364z" fill="#80b4fb" fill-rule="evenodd"/><path clip-rule="evenodd" d="m242.195 82.561h177.025c4.394 0 7.994 3.6 7.994 7.993v104.996c0 4.422-3.601 8.022-7.994 8.022h-177.025c-4.393 0-7.993-3.601-7.993-8.022v-104.996c0-4.394 3.6-7.993 7.993-7.993z" fill="#faf8f9" fill-rule="evenodd"/><path clip-rule="evenodd" d="m402.213 82.561h17.008c4.394 0 7.994 3.6 7.994 7.993v104.996c0 4.422-3.601 8.022-7.994 8.022h-177.026c-4.393 0-7.993-3.601-7.993-8.022v-16.98h153.016c8.249 0 14.995-6.746 14.995-14.995z" fill="#ede9fb" fill-rule="evenodd"/><path d="m492.016 423.997h-140.799v-14.995h140.799zm-140.799-76.451h140.799v14.995h-140.799z" fill="#ce835d"/><path d="m411.114 331.814c-4.139 0-7.513-3.373-7.513-7.512s3.374-7.512 7.513-7.512h21.004c4.139 0 7.483 3.373 7.483 7.512s-3.345 7.512-7.483 7.512z" fill="#0c5e7f"/><path d="m411.114 393.27c-4.139 0-7.513-3.345-7.513-7.483 0-4.168 3.374-7.513 7.513-7.513h21.004c4.139 0 7.483 3.345 7.483 7.513 0 4.139-3.345 7.483-7.483 7.483z" fill="#0c5e7f"/><path d="m411.114 454.753c-4.139 0-7.513-3.373-7.513-7.512s3.374-7.483 7.513-7.483h21.004c4.139 0 7.483 3.345 7.483 7.483s-3.345 7.512-7.483 7.512z" fill="#0c5e7f"/></g></svg>